<svg width="86" height="64" viewBox="0 0 86 64" fill="none" xmlns="http://www.w3.org/2000/svg">
<path d="M0.565708 46.2553H19.5145C19.6046 46.2558 19.693 46.2303 19.7687 46.1817C19.8444 46.1332 19.9041 46.0638 19.9405 45.9821C19.977 45.9003 19.9885 45.8098 19.9737 45.7217C19.9589 45.6335 19.9184 45.5516 19.8572 45.4859L19.8308 45.4584L10.4005 33.3665L10.3085 33.2653C10.2651 33.2181 10.2121 33.1803 10.1531 33.1545C10.0941 33.1287 10.0303 33.1154 9.96576 33.1155C9.85309 33.1177 9.74494 33.1598 9.66082 33.2341L9.60412 33.2991L9.51465 33.3977L0.316217 45.3635L0.175089 45.5346C0.123044 45.6105 0.0953721 45.7002 0.0957061 45.7919C0.0957052 45.853 0.107879 45.9134 0.13153 45.9698C0.15518 46.0262 0.18984 46.0774 0.233517 46.1204C0.277194 46.1635 0.329027 46.1976 0.386036 46.2207C0.443044 46.2438 0.504106 46.2556 0.565708 46.2553Z" fill="white"/>
<path d="M19.4566 47.9648H0.464964C0.403904 47.9648 0.343444 47.9768 0.287032 47.9999C0.23062 48.0231 0.179362 48.057 0.136186 48.0998C0.0930108 48.1426 0.0587613 48.1934 0.0353948 48.2493C0.0120282 48.3052 1.7075e-06 48.3652 1.7075e-06 48.4257V63.1503C-0.00016399 63.211 0.0117314 63.2711 0.0350083 63.3273C0.0582852 63.3834 0.0924877 63.4344 0.135664 63.4774C0.178839 63.5205 0.230144 63.5546 0.286645 63.578C0.343147 63.6014 0.403739 63.6135 0.464964 63.6137H6.57752V54.3455C6.57735 54.285 6.58926 54.225 6.61257 54.169C6.63588 54.113 6.67012 54.0621 6.71333 54.0193C6.75654 53.9765 6.80786 53.9425 6.86435 53.9194C6.92084 53.8963 6.98137 53.8845 7.04248 53.8847H12.7127C12.7739 53.8845 12.8344 53.8963 12.8909 53.9194C12.9474 53.9425 12.9987 53.9765 13.0419 54.0193C13.0851 54.0621 13.1193 54.113 13.1427 54.169C13.166 54.225 13.1779 54.285 13.1777 54.3455V63.6137H19.4528C19.514 63.6135 19.5746 63.6014 19.6311 63.578C19.6876 63.5546 19.7389 63.5205 19.7821 63.4774C19.8253 63.4344 19.8595 63.3834 19.8828 63.3273C19.906 63.2711 19.9179 63.211 19.9178 63.1503V48.4207C19.9165 48.3 19.8674 48.1846 19.7812 48.0994C19.6949 48.0141 19.5784 47.9658 19.4566 47.9648Z" fill="white"/>
<path d="M85.0943 44.1031H66.298C66.2384 44.1021 66.1792 44.1128 66.1237 44.1346C66.0683 44.1564 66.0178 44.1888 65.975 44.23C65.9323 44.2712 65.8982 44.3204 65.8747 44.3747C65.8512 44.429 65.8387 44.4874 65.8381 44.5465V63.3588C65.8401 63.4778 65.8896 63.5912 65.9758 63.6741C66.062 63.757 66.1779 63.8026 66.298 63.8009H85.0943C85.1539 63.8019 85.2131 63.7912 85.2685 63.7696C85.3239 63.7479 85.3745 63.7156 85.4173 63.6745C85.4601 63.6335 85.4944 63.5845 85.5181 63.5303C85.5418 63.4761 85.5545 63.4178 85.5555 63.3588V44.5465C85.5548 44.4873 85.5424 44.4288 85.5188 44.3744C85.4952 44.32 85.461 44.2708 85.4181 44.2295C85.3752 44.1883 85.3245 44.1559 85.269 44.1342C85.2134 44.1125 85.154 44.102 85.0943 44.1031ZM74.8097 56.3849C74.809 56.4439 74.7967 56.5023 74.7732 56.5566C74.7498 56.6109 74.7159 56.6601 74.6733 56.7013C74.6307 56.7426 74.5803 56.7752 74.525 56.7972C74.4697 56.8192 74.4106 56.8301 74.351 56.8295H68.735C68.6752 56.8303 68.6159 56.8195 68.5604 56.7976C68.5049 56.7757 68.4543 56.7432 68.4114 56.7019C68.3686 56.6606 68.3344 56.6113 68.3108 56.5569C68.2872 56.5026 68.2746 56.4441 68.2738 56.3849V53.0028C68.2744 52.9436 68.2869 52.885 68.3105 52.8306C68.334 52.7761 68.3682 52.7268 68.4111 52.6855C68.4539 52.6442 68.5046 52.6116 68.5602 52.5898C68.6158 52.568 68.6752 52.5572 68.735 52.5582H74.351C74.4107 52.5574 74.4698 52.5683 74.5252 52.5902C74.5806 52.6121 74.631 52.6447 74.6736 52.686C74.7163 52.7273 74.7502 52.7766 74.7736 52.831C74.7969 52.8853 74.8092 52.9437 74.8097 53.0028V56.3849ZM74.8097 50.1328C74.809 50.1919 74.7967 50.2502 74.7732 50.3045C74.7498 50.3588 74.7159 50.408 74.6733 50.4493C74.6307 50.4906 74.5803 50.5232 74.525 50.5451C74.4697 50.5671 74.4106 50.5781 74.351 50.5775H68.735C68.6752 50.5783 68.6159 50.5674 68.5604 50.5455C68.5049 50.5236 68.4543 50.4911 68.4114 50.4498C68.3686 50.4085 68.3344 50.3593 68.3108 50.3049C68.2872 50.2505 68.2746 50.192 68.2738 50.1328V46.7483C68.2761 46.6292 68.3259 46.5158 68.4123 46.4329C68.4987 46.3501 68.6147 46.3045 68.735 46.3062H74.351C74.4104 46.3054 74.4694 46.3161 74.5246 46.3379C74.5798 46.3597 74.6302 46.392 74.6728 46.4331C74.7154 46.4741 74.7494 46.5231 74.7729 46.5772C74.7964 46.6313 74.8089 46.6894 74.8097 46.7483V50.1328ZM83.3932 56.3849C83.3926 56.4441 83.3801 56.5027 83.3565 56.5571C83.333 56.6116 83.2988 56.6609 83.2559 56.7022C83.2131 56.7436 83.1624 56.7761 83.1068 56.7979C83.0512 56.8198 82.9918 56.8305 82.932 56.8295H77.3185C77.2587 56.8305 77.1993 56.8198 77.1437 56.7979C77.0881 56.7761 77.0375 56.7436 76.9946 56.7022C76.9517 56.6609 76.9176 56.6116 76.894 56.5571C76.8704 56.5027 76.858 56.4441 76.8573 56.3849V53.0028C76.858 52.9436 76.8704 52.885 76.894 52.8306C76.9176 52.7761 76.9517 52.7268 76.9946 52.6855C77.0375 52.6442 77.0881 52.6116 77.1437 52.5898C77.1993 52.568 77.2587 52.5572 77.3185 52.5582H82.932C82.9918 52.5572 83.0512 52.568 83.1068 52.5898C83.1624 52.6116 83.2131 52.6442 83.2559 52.6855C83.2988 52.7268 83.333 52.7761 83.3565 52.8306C83.3801 52.885 83.3926 52.9436 83.3932 53.0028V56.3849ZM83.3932 50.1328C83.3926 50.1921 83.3801 50.2506 83.3565 50.3051C83.333 50.3596 83.2988 50.4089 83.2559 50.4502C83.2131 50.4915 83.1624 50.524 83.1068 50.5459C83.0512 50.5677 82.9918 50.5784 82.932 50.5775H77.3185C77.2587 50.5784 77.1993 50.5677 77.1437 50.5459C77.0881 50.524 77.0375 50.4915 76.9946 50.4502C76.9517 50.4089 76.9176 50.3596 76.894 50.3051C76.8704 50.2506 76.858 50.1921 76.8573 50.1328V46.7483C76.8583 46.6893 76.871 46.631 76.8947 46.5768C76.9184 46.5226 76.9527 46.4736 76.9955 46.4326C77.0383 46.3915 77.0889 46.3592 77.1443 46.3375C77.1997 46.3158 77.2589 46.3052 77.3185 46.3062H82.932C82.9916 46.3052 83.0508 46.3158 83.1062 46.3375C83.1616 46.3592 83.2122 46.3915 83.255 46.4326C83.2979 46.4736 83.3321 46.5226 83.3558 46.5768C83.3795 46.631 83.3922 46.6893 83.3932 46.7483V50.1328Z" fill="white"/>
<path d="M41.3992 0.436334H23.0024C22.9433 0.436498 22.8848 0.448193 22.8303 0.470751C22.7758 0.493309 22.7263 0.526289 22.6846 0.567807C22.643 0.609325 22.61 0.658566 22.5875 0.712723C22.5651 0.76688 22.5536 0.824891 22.5538 0.883442V63.1915C22.5541 63.3094 22.6014 63.4225 22.6854 63.506C22.7695 63.5895 22.8834 63.6367 23.0024 63.6374H41.3992C41.5187 63.637 41.6332 63.59 41.7178 63.5066C41.8025 63.4231 41.8506 63.3099 41.8516 63.1915V0.880946C41.8513 0.76225 41.8034 0.64853 41.7187 0.564716C41.6339 0.480903 41.519 0.433837 41.3992 0.433838M30.4569 56.5386C30.4569 56.5701 30.4506 56.6012 30.4385 56.6303C30.4263 56.6594 30.4085 56.6859 30.386 56.7081C30.3635 56.7304 30.3369 56.7481 30.3075 56.7601C30.2782 56.7722 30.2467 56.7784 30.2149 56.7784H26.0038C25.9397 56.7784 25.8781 56.7531 25.8327 56.7081C25.7874 56.6632 25.7619 56.6022 25.7619 56.5386V51.8876C25.7619 51.8562 25.7682 51.8251 25.7803 51.7961C25.7925 51.767 25.8103 51.7407 25.8328 51.7185C25.8553 51.6964 25.882 51.6788 25.9113 51.6669C25.9407 51.655 25.9721 51.6489 26.0038 51.6491H30.2149C30.2466 51.6489 30.2781 51.655 30.3074 51.6669C30.3368 51.6788 30.3635 51.6964 30.3859 51.7185C30.4084 51.7407 30.4263 51.767 30.4384 51.7961C30.4506 51.8251 30.4569 51.8562 30.4569 51.8876V56.5386ZM30.4569 45.8542C30.4567 45.8855 30.4503 45.9165 30.4381 45.9453C30.4258 45.9742 30.408 46.0004 30.3855 46.0225C30.363 46.0445 30.3364 46.0619 30.3071 46.0738C30.2779 46.0856 30.2465 46.0916 30.2149 46.0915H26.0038C25.9409 46.0905 25.8808 46.0651 25.8365 46.0207C25.7922 45.9764 25.7672 45.9166 25.7669 45.8542V41.2045C25.7668 41.1729 25.7729 41.1417 25.785 41.1125C25.7971 41.0833 25.8149 41.0568 25.8374 41.0345C25.8599 41.0122 25.8867 40.9946 25.9161 40.9826C25.9455 40.9706 25.977 40.9645 26.0089 40.9647H30.2149C30.2468 40.9645 30.2783 40.9706 30.3077 40.9826C30.3371 40.9946 30.3639 41.0122 30.3864 41.0345C30.4089 41.0568 30.4267 41.0833 30.4388 41.1125C30.4509 41.1417 30.457 41.1729 30.4569 41.2045V45.8542ZM30.4569 35.1722C30.4569 35.2037 30.4506 35.2349 30.4385 35.264C30.4263 35.2931 30.4085 35.3195 30.386 35.3418C30.3635 35.3641 30.3369 35.3817 30.3075 35.3938C30.2782 35.4058 30.2467 35.412 30.2149 35.412H26.0038C25.9397 35.412 25.8781 35.3868 25.8327 35.3418C25.7874 35.2968 25.7619 35.2358 25.7619 35.1722V30.5188C25.7622 30.4554 25.7879 30.3948 25.8332 30.3501C25.8785 30.3054 25.9399 30.2803 26.0038 30.2803H30.2149C30.2789 30.2803 30.3402 30.3054 30.3856 30.3501C30.4309 30.3948 30.4565 30.4554 30.4569 30.5188V35.1722ZM30.4569 24.4878C30.4569 24.5514 30.4314 24.6124 30.386 24.6574C30.3406 24.7023 30.2791 24.7276 30.2149 24.7276H26.0038C25.9401 24.7263 25.8795 24.7001 25.8351 24.6547C25.7908 24.6094 25.7662 24.5485 25.7669 24.4853V19.8344C25.7671 19.8031 25.7735 19.7722 25.7857 19.7434C25.798 19.7146 25.8159 19.6884 25.8384 19.6665C25.8609 19.6446 25.8875 19.6273 25.9168 19.6156C25.946 19.6039 25.9773 19.598 26.0089 19.5983H30.2149C30.2465 19.598 30.2778 19.6039 30.307 19.6156C30.3363 19.6273 30.3629 19.6446 30.3854 19.6665C30.4079 19.6884 30.4258 19.7146 30.438 19.7434C30.4503 19.7722 30.4567 19.8031 30.4569 19.8344V24.4878ZM30.4569 13.8059C30.4565 13.8693 30.4309 13.93 30.3856 13.9747C30.3402 14.0194 30.2789 14.0444 30.2149 14.0444H26.0038C25.9399 14.0444 25.8785 14.0194 25.8332 13.9747C25.7879 13.93 25.7622 13.8693 25.7619 13.8059V9.15247C25.7619 9.08887 25.7874 9.02788 25.8327 8.98291C25.8781 8.93794 25.9397 8.91268 26.0038 8.91268H30.2149C30.2467 8.91268 30.2782 8.91888 30.3075 8.93093C30.3369 8.94298 30.3635 8.96064 30.386 8.98291C30.4085 9.00518 30.4263 9.03161 30.4385 9.06071C30.4506 9.0898 30.4569 9.12098 30.4569 9.15247V13.8059ZM38.7166 56.5386C38.7166 56.5702 38.7103 56.6015 38.698 56.6306C38.6858 56.6598 38.6679 56.6863 38.6453 56.7086C38.6227 56.7309 38.5958 56.7485 38.5663 56.7605C38.5368 56.7725 38.5052 56.7785 38.4734 56.7784H34.2635C34.2317 56.7785 34.2002 56.7724 34.1707 56.7605C34.1413 56.7485 34.1146 56.7308 34.0921 56.7085C34.0696 56.6862 34.0518 56.6597 34.0397 56.6305C34.0276 56.6014 34.0214 56.5701 34.0216 56.5386V51.8876C34.0216 51.8562 34.0278 51.8251 34.04 51.7961C34.0522 51.767 34.07 51.7407 34.0925 51.7185C34.115 51.6964 34.1417 51.6788 34.171 51.6669C34.2004 51.655 34.2318 51.6489 34.2635 51.6491H38.4734C38.5052 51.6488 38.5368 51.6547 38.5662 51.6665C38.5957 51.6784 38.6226 51.6959 38.6452 51.7181C38.6678 51.7403 38.6858 51.7667 38.698 51.7958C38.7103 51.8249 38.7166 51.8561 38.7166 51.8876V56.5386ZM38.7166 45.8542C38.7167 45.8858 38.7105 45.9172 38.6984 45.9464C38.6862 45.9757 38.6683 46.0022 38.6456 46.0245C38.623 46.0468 38.5961 46.0645 38.5665 46.0764C38.537 46.0883 38.5053 46.0943 38.4734 46.094H34.2635C34.2316 46.0943 34.2 46.0883 34.1705 46.0764C34.141 46.0644 34.1142 46.0468 34.0917 46.0245C34.0692 46.0021 34.0513 45.9756 34.0393 45.9463C34.0273 45.9171 34.0212 45.8857 34.0216 45.8542V41.2045C34.0212 41.1729 34.0273 41.1416 34.0393 41.1123C34.0513 41.0831 34.0692 41.0565 34.0917 41.0342C34.1142 41.0118 34.141 40.9942 34.1705 40.9823C34.2 40.9703 34.2316 40.9643 34.2635 40.9647H38.4734C38.5053 40.9644 38.537 40.9703 38.5665 40.9822C38.5961 40.9941 38.623 41.0118 38.6456 41.0341C38.6683 41.0564 38.6862 41.083 38.6984 41.1122C38.7105 41.1415 38.7167 41.1728 38.7166 41.2045V45.8542ZM38.7166 35.1722C38.7166 35.2038 38.7103 35.2351 38.698 35.2643C38.6858 35.2935 38.6679 35.32 38.6453 35.3422C38.6227 35.3645 38.5958 35.3822 38.5663 35.3941C38.5368 35.4061 38.5052 35.4122 38.4734 35.412H34.2635C34.2317 35.4122 34.2002 35.4061 34.1707 35.3941C34.1413 35.3821 34.1146 35.3645 34.0921 35.3422C34.0696 35.3199 34.0518 35.2934 34.0397 35.2642C34.0276 35.235 34.0214 35.2038 34.0216 35.1722V30.5188C34.0216 30.4874 34.0278 30.4563 34.04 30.4272C34.0522 30.3982 34.07 30.3719 34.0925 30.3497C34.115 30.3275 34.1417 30.31 34.171 30.2981C34.2004 30.2861 34.2318 30.2801 34.2635 30.2803H38.4734C38.5051 30.2801 38.5366 30.2861 38.5661 30.298C38.5955 30.3099 38.6222 30.3275 38.6448 30.3496C38.6674 30.3718 38.6854 30.3981 38.6977 30.4271C38.71 30.4562 38.7164 30.4873 38.7166 30.5188V35.1722ZM38.7166 24.4878C38.7166 24.5194 38.7103 24.5507 38.698 24.5799C38.6858 24.6091 38.6679 24.6355 38.6453 24.6578C38.6227 24.6801 38.5958 24.6977 38.5663 24.7097C38.5368 24.7217 38.5052 24.7278 38.4734 24.7276H34.2635C34.2317 24.7278 34.2002 24.7217 34.1707 24.7097C34.1413 24.6977 34.1146 24.6801 34.0921 24.6578C34.0696 24.6355 34.0518 24.609 34.0397 24.5798C34.0276 24.5506 34.0214 24.5194 34.0216 24.4878V19.8344C34.0217 19.8031 34.0281 19.7722 34.0404 19.7434C34.0527 19.7146 34.0706 19.6884 34.093 19.6665C34.1155 19.6446 34.1422 19.6273 34.1714 19.6156C34.2007 19.6039 34.232 19.598 34.2635 19.5983H38.4734C38.505 19.5978 38.5365 19.6036 38.5659 19.6152C38.5953 19.6268 38.622 19.6441 38.6447 19.6661C38.6673 19.688 38.6853 19.7142 38.6976 19.7431C38.71 19.772 38.7164 19.803 38.7166 19.8344V24.4878ZM38.7166 13.8059C38.7164 13.8374 38.71 13.8685 38.6977 13.8976C38.6854 13.9266 38.6674 13.9529 38.6448 13.9751C38.6222 13.9972 38.5955 14.0148 38.5661 14.0267C38.5366 14.0386 38.5051 14.0446 38.4734 14.0444H34.2635C34.2318 14.0446 34.2004 14.0386 34.171 14.0266C34.1417 14.0147 34.115 13.9972 34.0925 13.975C34.07 13.9529 34.0522 13.9265 34.04 13.8975C34.0278 13.8685 34.0216 13.8373 34.0216 13.8059V9.15247C34.0214 9.12094 34.0276 9.08968 34.0397 9.06051C34.0518 9.03134 34.0696 9.00484 34.0921 8.98254C34.1146 8.96024 34.1413 8.94259 34.1707 8.9306C34.2002 8.9186 34.2317 8.91251 34.2635 8.91268H38.4734C38.5052 8.91251 38.5368 8.9186 38.5663 8.93057C38.5958 8.94255 38.6227 8.96019 38.6453 8.98247C38.6679 9.00475 38.6858 9.03124 38.698 9.06042C38.7103 9.08959 38.7166 9.12088 38.7166 9.15247V13.8059Z" fill="white"/>
<path d="M85.5341 42.2098C85.5341 42.3091 85.4943 42.4044 85.4234 42.4747C85.3525 42.545 85.2564 42.5845 85.1561 42.5845H66.2363C66.136 42.5845 66.0399 42.545 65.969 42.4747C65.8981 42.4044 65.8583 42.3091 65.8583 42.2098V38.4631C65.8583 38.3637 65.8981 38.2684 65.969 38.1981C66.0399 38.1279 66.136 38.0884 66.2363 38.0884H85.1561C85.2564 38.0884 85.3525 38.1279 85.4234 38.1981C85.4943 38.2684 85.5341 38.3637 85.5341 38.4631V42.2098Z" fill="white"/>
<path d="M63.6192 12.2027C63.5904 12.1029 63.5298 12.0151 63.4464 11.9523C63.3631 11.8895 63.2615 11.8551 63.1568 11.8542C63.0623 11.8567 62.9707 11.8866 62.8934 11.9404L62.8594 11.9629L62.7044 12.1577L44.6251 34.8879L44.5419 34.999C44.4449 35.0925 44.3884 35.2197 44.3844 35.3537V63.2856C44.3846 63.3441 44.3964 63.4021 44.4191 63.4561C44.4419 63.5101 44.4752 63.5592 44.517 63.6005C44.5589 63.6418 44.6086 63.6745 44.6633 63.6967C44.7179 63.719 44.7764 63.7303 44.8355 63.7302H63.2122C63.2712 63.7303 63.3297 63.719 63.3843 63.6967C63.4388 63.6744 63.4884 63.6417 63.5302 63.6004C63.572 63.5591 63.6052 63.51 63.6278 63.456C63.6504 63.402 63.6621 63.3441 63.6621 63.2856V12.39C63.6611 12.3253 63.6465 12.2615 63.6192 12.2027ZM56.0085 24.5469L56.1345 24.3871C57.3706 22.8134 59.456 20.2656 60.4716 19.0342L60.6051 18.8769C60.6543 18.8177 60.7161 18.77 60.786 18.7371C60.8559 18.7043 60.9323 18.6872 61.0096 18.687C61.1295 18.6876 61.2454 18.7296 61.3373 18.8057C61.4293 18.8819 61.4917 18.9874 61.5137 19.1042V24.8604C61.5131 24.9939 61.4601 25.1219 61.3661 25.2174C61.2721 25.313 61.1442 25.3686 61.0096 25.3724C61.0008 25.3724 60.9945 25.3724 60.9869 25.3724C60.9794 25.3724 60.9718 25.3724 60.963 25.3724H56.4507C56.4419 25.3724 56.4356 25.3724 56.4281 25.3724C56.4205 25.3724 56.4129 25.3724 56.4054 25.3724C56.2709 25.3682 56.1432 25.3126 56.0492 25.2171C55.9553 25.1216 55.9023 24.9938 55.9014 24.8604C55.9017 24.7471 55.9393 24.6371 56.0085 24.5469ZM53.1481 56.3816C53.1483 56.4402 53.1368 56.4983 53.1142 56.5524C53.0917 56.6066 53.0585 56.6558 53.0167 56.6972C52.9749 56.7387 52.9253 56.7715 52.8706 56.7939C52.816 56.8162 52.7574 56.8276 52.6983 56.8275H47.2145C47.1554 56.8276 47.0968 56.8162 47.0422 56.7939C46.9875 56.7715 46.9378 56.7387 46.896 56.6972C46.8542 56.6558 46.8211 56.6066 46.7986 56.5524C46.776 56.4983 46.7645 56.4402 46.7647 56.3816V52.9808C46.7647 52.9223 46.7763 52.8644 46.7989 52.8104C46.8215 52.7564 46.8547 52.7073 46.8965 52.666C46.9383 52.6247 46.9879 52.592 47.0424 52.5697C47.097 52.5474 47.1555 52.536 47.2145 52.5362H52.697C52.756 52.536 52.8145 52.5474 52.8691 52.5697C52.9236 52.592 52.9732 52.6247 53.015 52.666C53.0568 52.7073 53.09 52.7564 53.1126 52.8104C53.1352 52.8644 53.1469 52.9223 53.1469 52.9808L53.1481 56.3816ZM53.1481 50.0971C53.1483 50.1557 53.1368 50.2137 53.1142 50.2679C53.0917 50.3221 53.0585 50.3713 53.0167 50.4127C52.9749 50.4542 52.9253 50.487 52.8706 50.5093C52.816 50.5317 52.7574 50.5431 52.6983 50.543H47.2145C47.1554 50.5431 47.0968 50.5317 47.0422 50.5093C46.9875 50.487 46.9378 50.4542 46.896 50.4127C46.8542 50.3713 46.8211 50.3221 46.7986 50.2679C46.776 50.2137 46.7645 50.1557 46.7647 50.0971V46.6963C46.7643 46.6377 46.7757 46.5795 46.7982 46.5253C46.8207 46.4711 46.8538 46.4218 46.8957 46.3803C46.9375 46.3388 46.9872 46.306 47.042 46.2837C47.0967 46.2614 47.1553 46.2501 47.2145 46.2505H52.697C52.7562 46.2501 52.8148 46.2614 52.8696 46.2837C52.9243 46.306 52.974 46.3388 53.0158 46.3803C53.0577 46.4218 53.0908 46.4711 53.1133 46.5253C53.1358 46.5795 53.1472 46.6377 53.1469 46.6963L53.1481 50.0971ZM53.1481 43.8126C53.1481 43.8711 53.1365 43.929 53.1139 43.983C53.0912 44.037 53.0581 44.0861 53.0163 44.1274C52.9745 44.1687 52.9249 44.2014 52.8703 44.2237C52.8158 44.246 52.7573 44.2574 52.6983 44.2572H47.2145C47.1555 44.2574 47.097 44.246 47.0424 44.2237C46.9879 44.2014 46.9383 44.1687 46.8965 44.1274C46.8547 44.0861 46.8215 44.037 46.7989 43.983C46.7763 43.929 46.7647 43.8711 46.7647 43.8126V40.4106C46.7645 40.352 46.776 40.2939 46.7986 40.2397C46.8211 40.1856 46.8542 40.1363 46.896 40.0949C46.9378 40.0535 46.9875 40.0206 47.0422 39.9983C47.0968 39.9759 47.1554 39.9645 47.2145 39.9647H52.697C52.7561 39.9645 52.8147 39.9759 52.8694 39.9983C52.924 40.0206 52.9737 40.0535 53.0155 40.0949C53.0573 40.1363 53.0904 40.1856 53.113 40.2397C53.1355 40.2939 53.147 40.352 53.1469 40.4106L53.1481 43.8126ZM53.1632 30.0409V37.5343C53.1629 37.6525 53.1154 37.7657 53.0311 37.8492C52.9468 37.9328 52.8326 37.9798 52.7134 37.9802H47.2321C47.1728 37.9805 47.1141 37.9692 47.0592 37.947C47.0043 37.9247 46.9545 37.8919 46.9124 37.8505C46.8704 37.809 46.837 37.7598 46.8143 37.7055C46.7915 37.6513 46.7798 37.5931 46.7798 37.5343V36.5914C46.7818 36.5345 46.7933 36.4784 46.8138 36.4253C46.8216 36.4071 46.8309 36.3895 46.8415 36.3728C46.8531 36.352 46.8666 36.3324 46.8818 36.3141C46.8944 36.2929 46.9159 36.2654 46.9322 36.2417C47.6328 35.2426 50.7956 31.3859 52.1237 29.7723L52.2573 29.6125C52.3064 29.5534 52.3682 29.5058 52.4381 29.4732C52.5081 29.4406 52.5844 29.4237 52.6617 29.4239C52.7813 29.4247 52.8969 29.4666 52.9889 29.5424C53.0808 29.6183 53.1433 29.7234 53.1658 29.8398L53.1632 30.0409ZM61.5275 56.3816C61.5275 56.4402 61.5159 56.4981 61.4933 56.5522C61.4707 56.6063 61.4375 56.6555 61.3958 56.6969C61.354 56.7383 61.3044 56.7711 61.2498 56.7935C61.1952 56.8159 61.1367 56.8275 61.0777 56.8275H55.5964C55.5371 56.8278 55.4784 56.8165 55.4235 56.7942C55.3686 56.772 55.3187 56.7392 55.2767 56.6978C55.2347 56.6563 55.2013 56.6071 55.1785 56.5528C55.1558 56.4985 55.1441 56.4404 55.1441 56.3816V52.9808C55.1442 52.9222 55.1561 52.8641 55.1789 52.81C55.2017 52.7559 55.2351 52.7068 55.2771 52.6655C55.3192 52.6242 55.369 52.5915 55.4238 52.5693C55.4786 52.5471 55.5372 52.5359 55.5964 52.5362H61.0777C61.1968 52.5362 61.311 52.583 61.3953 52.6664C61.4796 52.7497 61.5272 52.8628 61.5275 52.9808V56.3816ZM61.5275 50.0971C61.5275 50.2153 61.4801 50.3287 61.3958 50.4124C61.3114 50.496 61.197 50.543 61.0777 50.543H55.5964C55.5371 50.5433 55.4784 50.532 55.4235 50.5097C55.3686 50.4875 55.3187 50.4547 55.2767 50.4132C55.2347 50.3718 55.2013 50.3225 55.1785 50.2683C55.1558 50.214 55.1441 50.1559 55.1441 50.0971V46.6963C55.1439 46.6375 55.1555 46.5792 55.1782 46.5249C55.2009 46.4706 55.2342 46.4212 55.2763 46.3798C55.3184 46.3383 55.3684 46.3055 55.4233 46.2833C55.4782 46.2611 55.5371 46.25 55.5964 46.2505H61.0777C61.1367 46.2505 61.1952 46.262 61.2498 46.2844C61.3044 46.3068 61.354 46.3396 61.3958 46.381C61.4375 46.4224 61.4707 46.4716 61.4933 46.5257C61.5159 46.5798 61.5275 46.6378 61.5275 46.6963V50.0971ZM61.5275 43.8126C61.5268 43.9305 61.4792 44.0434 61.3949 44.1267C61.3107 44.21 61.1967 44.2569 61.0777 44.2572H55.5964C55.5372 44.2575 55.4786 44.2463 55.4238 44.2241C55.369 44.2019 55.3192 44.1692 55.2771 44.1279C55.2351 44.0866 55.2017 44.0375 55.1789 43.9834C55.1561 43.9293 55.1442 43.8712 55.1441 43.8126V40.4106C55.1441 40.3518 55.1558 40.2936 55.1785 40.2393C55.2013 40.1851 55.2347 40.1358 55.2767 40.0944C55.3187 40.053 55.3686 40.0202 55.4235 39.9979C55.4784 39.9757 55.5371 39.9644 55.5964 39.9647H61.0777C61.197 39.9647 61.3114 40.0117 61.3958 40.0953C61.4801 40.1789 61.5275 40.2923 61.5275 40.4106V43.8126ZM61.5275 37.5268C61.5272 37.6449 61.4796 37.7579 61.3953 37.8413C61.311 37.9246 61.1968 37.9714 61.0777 37.9714H55.5964C55.5372 37.9718 55.4786 37.9605 55.4238 37.9383C55.369 37.9162 55.3192 37.8835 55.2771 37.8422C55.2351 37.8009 55.2017 37.7518 55.1789 37.6976C55.1561 37.6435 55.1442 37.5855 55.1441 37.5268V34.126C55.1441 34.0673 55.1558 34.0091 55.1785 33.9548C55.2013 33.9006 55.2347 33.8513 55.2767 33.8099C55.3187 33.7684 55.3686 33.7357 55.4235 33.7134C55.4784 33.6911 55.5371 33.6799 55.5964 33.6802H61.0777C61.197 33.6802 61.3114 33.7272 61.3958 33.8108C61.4801 33.8944 61.5275 34.0078 61.5275 34.126V37.5268ZM61.5275 31.2411C61.5275 31.2996 61.5159 31.3576 61.4933 31.4117C61.4707 31.4658 61.4375 31.5149 61.3958 31.5563C61.354 31.5977 61.3044 31.6306 61.2498 31.653C61.1952 31.6754 61.1367 31.6869 61.0777 31.6869H55.5964C55.5371 31.6873 55.4784 31.676 55.4235 31.6537C55.3686 31.6314 55.3187 31.5987 55.2767 31.5572C55.2347 31.5158 55.2013 31.4665 55.1785 31.4123C55.1558 31.358 55.1441 31.2998 55.1441 31.2411V27.8403C55.1439 27.7814 55.1555 27.7231 55.1782 27.6687C55.2009 27.6143 55.2342 27.5649 55.2762 27.5233C55.3183 27.4818 55.3682 27.4488 55.4232 27.4265C55.4781 27.4042 55.537 27.3928 55.5964 27.3932H61.0777C61.1369 27.3932 61.1955 27.4047 61.2501 27.4272C61.3048 27.4497 61.3544 27.4827 61.3962 27.5242C61.438 27.5657 61.4711 27.615 61.4936 27.6693C61.5162 27.7235 61.5277 27.7816 61.5275 27.8403V31.2411Z" fill="white"/>
</svg>
