<svg width="566" height="416" viewBox="0 0 566 416" fill="none" xmlns="http://www.w3.org/2000/svg">
<path d="M3.84201 311.203H132.535C133.148 311.206 133.748 311.033 134.262 310.703C134.776 310.374 135.182 309.902 135.429 309.347C135.676 308.792 135.755 308.177 135.654 307.579C135.553 306.98 135.278 306.423 134.863 305.978L134.683 305.791L70.6362 223.667L70.0115 222.98C69.7166 222.659 69.3571 222.402 68.9562 222.227C68.5554 222.051 68.1219 221.961 67.6837 221.962C66.9185 221.977 66.184 222.263 65.6127 222.768L65.2276 223.209L64.62 223.879L2.14755 305.146L1.18906 306.308C0.835593 306.824 0.647654 307.433 0.649923 308.056C0.649917 308.47 0.732598 308.881 0.893224 309.264C1.05385 309.647 1.28925 309.994 1.58589 310.287C1.88253 310.579 2.23455 310.811 2.62174 310.968C3.00892 311.125 3.42362 311.205 3.84201 311.203Z" fill="#FFCCB4" fill-opacity="0.3"/>
<path d="M132.142 322.813H3.15787C2.74317 322.813 2.33255 322.894 1.94942 323.052C1.56629 323.209 1.21816 323.44 0.924929 323.73C0.631696 324.021 0.399085 324.366 0.240388 324.746C0.0816913 325.125 1.15968e-05 325.532 1.15968e-05 325.943V425.948C-0.00111376 426.36 0.0796754 426.768 0.237764 427.149C0.395852 427.531 0.628143 427.877 0.921378 428.169C1.21461 428.462 1.56305 428.694 1.94679 428.853C2.33053 429.011 2.74205 429.094 3.15787 429.095H44.6721V366.149C44.671 365.737 44.7519 365.33 44.9102 364.95C45.0685 364.569 45.301 364.224 45.5945 363.933C45.888 363.642 46.2365 363.412 46.6202 363.255C47.0038 363.098 47.415 363.018 47.83 363.019H86.3404C86.7554 363.018 87.1666 363.098 87.5502 363.255C87.9338 363.412 88.2824 363.642 88.5759 363.933C88.8693 364.224 89.1019 364.569 89.2602 364.95C89.4185 365.33 89.4994 365.737 89.4983 366.149V429.095H132.116C132.532 429.094 132.944 429.011 133.328 428.853C133.711 428.694 134.06 428.462 134.353 428.169C134.646 427.877 134.878 427.531 135.037 427.149C135.195 426.768 135.275 426.36 135.274 425.948V325.909C135.265 325.09 134.932 324.306 134.347 323.727C133.761 323.148 132.969 322.82 132.142 322.813Z" fill="#FFCCB4" fill-opacity="0.3"/>
<path d="M577.93 296.585H450.272C449.868 296.578 449.465 296.651 449.089 296.799C448.712 296.947 448.369 297.167 448.079 297.447C447.789 297.727 447.557 298.061 447.397 298.429C447.238 298.798 447.153 299.195 447.149 299.596V427.363C447.162 428.171 447.499 428.941 448.084 429.504C448.67 430.067 449.457 430.377 450.272 430.365H577.93C578.335 430.372 578.737 430.3 579.113 430.152C579.49 430.005 579.833 429.786 580.124 429.507C580.415 429.228 580.647 428.895 580.808 428.527C580.969 428.159 581.056 427.764 581.062 427.363V299.596C581.058 299.194 580.973 298.797 580.813 298.427C580.653 298.058 580.421 297.724 580.129 297.444C579.838 297.164 579.494 296.944 579.116 296.796C578.739 296.649 578.336 296.577 577.93 296.585ZM508.081 379.998C508.076 380.399 507.992 380.796 507.833 381.164C507.674 381.533 507.444 381.867 507.154 382.148C506.865 382.428 506.523 382.649 506.147 382.799C505.772 382.948 505.37 383.022 504.966 383.018H466.823C466.418 383.024 466.015 382.95 465.638 382.801C465.261 382.653 464.917 382.432 464.626 382.151C464.335 381.871 464.103 381.536 463.943 381.167C463.782 380.798 463.697 380.4 463.691 379.998V357.029C463.696 356.626 463.78 356.229 463.94 355.859C464.1 355.489 464.333 355.154 464.624 354.873C464.915 354.593 465.259 354.372 465.637 354.224C466.014 354.075 466.417 354.002 466.823 354.009H504.966C505.371 354.004 505.773 354.077 506.149 354.226C506.525 354.375 506.867 354.596 507.157 354.877C507.446 355.158 507.677 355.492 507.836 355.861C507.994 356.231 508.078 356.627 508.081 357.029V379.998ZM508.081 337.537C508.076 337.938 507.992 338.334 507.833 338.703C507.674 339.072 507.444 339.406 507.154 339.686C506.865 339.967 506.523 340.188 506.147 340.337C505.772 340.486 505.37 340.561 504.966 340.556H466.823C466.418 340.562 466.015 340.488 465.638 340.34C465.261 340.191 464.917 339.97 464.626 339.69C464.335 339.409 464.103 339.075 463.943 338.705C463.782 338.336 463.697 337.939 463.691 337.537V314.55C463.707 313.741 464.045 312.971 464.632 312.408C465.219 311.846 466.007 311.536 466.823 311.548H504.966C505.369 311.542 505.77 311.615 506.145 311.763C506.52 311.911 506.862 312.131 507.151 312.409C507.44 312.688 507.671 313.021 507.831 313.388C507.99 313.755 508.075 314.15 508.081 314.55V337.537ZM566.377 379.998C566.373 380.401 566.288 380.798 566.128 381.168C565.968 381.538 565.736 381.873 565.445 382.154C565.153 382.434 564.809 382.655 564.432 382.804C564.054 382.952 563.651 383.025 563.245 383.018H525.12C524.714 383.025 524.31 382.952 523.933 382.804C523.555 382.655 523.211 382.434 522.92 382.154C522.629 381.873 522.397 381.538 522.237 381.168C522.077 380.798 521.992 380.401 521.987 379.998V357.029C521.992 356.626 522.077 356.229 522.237 355.859C522.397 355.489 522.629 355.154 522.92 354.873C523.211 354.593 523.555 354.372 523.933 354.224C524.31 354.075 524.714 354.002 525.12 354.009H563.245C563.651 354.002 564.054 354.075 564.432 354.224C564.809 354.372 565.153 354.593 565.445 354.873C565.736 355.154 565.968 355.489 566.128 355.859C566.288 356.229 566.373 356.626 566.377 357.029V379.998ZM566.377 337.537C566.373 337.939 566.288 338.337 566.128 338.707C565.968 339.077 565.736 339.412 565.445 339.692C565.153 339.973 564.809 340.194 564.432 340.342C564.054 340.49 563.651 340.563 563.245 340.556H525.12C524.714 340.563 524.31 340.49 523.933 340.342C523.555 340.194 523.211 339.973 522.92 339.692C522.629 339.412 522.397 339.077 522.237 338.707C522.077 338.337 521.992 337.939 521.987 337.537V314.55C521.994 314.149 522.08 313.753 522.241 313.385C522.402 313.018 522.635 312.685 522.926 312.406C523.217 312.127 523.56 311.908 523.937 311.76C524.313 311.613 524.715 311.541 525.12 311.548H563.245C563.649 311.541 564.051 311.613 564.428 311.76C564.804 311.908 565.148 312.127 565.439 312.406C565.729 312.685 565.962 313.018 566.123 313.385C566.284 313.753 566.37 314.149 566.377 314.55V337.537Z" fill="#FFCCB4" fill-opacity="0.3"/>
<path d="M281.169 0.016955H156.224C155.823 0.0180673 155.426 0.0974944 155.056 0.2507C154.685 0.403906 154.349 0.627898 154.066 0.909873C153.783 1.19185 153.559 1.52627 153.407 1.89409C153.254 2.2619 153.176 2.65589 153.178 3.05355V426.228C153.18 427.028 153.501 427.796 154.072 428.363C154.642 428.93 155.416 429.251 156.224 429.256H281.169C281.98 429.253 282.758 428.934 283.333 428.367C283.908 427.8 284.235 427.031 284.241 426.228V3.03659C284.239 2.23046 283.914 1.45811 283.338 0.88888C282.763 0.319648 281.982 -3.12744e-06 281.169 0M206.852 381.043C206.852 381.257 206.81 381.469 206.727 381.666C206.645 381.864 206.524 382.043 206.371 382.195C206.219 382.346 206.038 382.466 205.838 382.548C205.639 382.63 205.425 382.672 205.209 382.672H176.609C176.173 382.672 175.755 382.5 175.447 382.195C175.139 381.889 174.966 381.475 174.966 381.043V349.456C174.966 349.242 175.008 349.031 175.091 348.834C175.174 348.637 175.295 348.458 175.448 348.307C175.6 348.157 175.782 348.037 175.981 347.956C176.18 347.876 176.394 347.834 176.609 347.836H205.209C205.425 347.834 205.638 347.876 205.838 347.956C206.037 348.037 206.218 348.157 206.371 348.307C206.523 348.458 206.645 348.637 206.727 348.834C206.81 349.031 206.852 349.242 206.852 349.456V381.043ZM206.852 308.478C206.851 308.691 206.808 308.902 206.725 309.098C206.642 309.294 206.52 309.472 206.368 309.622C206.215 309.771 206.034 309.89 205.836 309.97C205.637 310.05 205.424 310.091 205.209 310.09H176.609C176.181 310.083 175.773 309.911 175.473 309.61C175.172 309.308 175.002 308.902 175 308.478V276.899C174.999 276.685 175.041 276.473 175.123 276.275C175.205 276.077 175.326 275.897 175.479 275.745C175.632 275.594 175.813 275.474 176.013 275.393C176.213 275.311 176.427 275.27 176.643 275.271H205.209C205.425 275.27 205.64 275.311 205.84 275.393C206.039 275.474 206.221 275.594 206.374 275.745C206.527 275.897 206.648 276.077 206.73 276.275C206.812 276.473 206.854 276.685 206.852 276.899V308.478ZM206.852 235.931C206.852 236.145 206.81 236.356 206.727 236.554C206.645 236.752 206.524 236.931 206.371 237.082C206.219 237.234 206.038 237.353 205.838 237.435C205.639 237.517 205.425 237.559 205.209 237.559H176.609C176.173 237.559 175.755 237.388 175.447 237.082C175.139 236.777 174.966 236.363 174.966 235.931V204.326C174.968 203.896 175.142 203.484 175.45 203.18C175.758 202.877 176.175 202.706 176.609 202.706H205.209C205.644 202.706 206.06 202.877 206.368 203.18C206.676 203.484 206.85 203.896 206.852 204.326V235.931ZM206.852 163.366C206.852 163.798 206.679 164.212 206.371 164.518C206.063 164.823 205.645 164.995 205.209 164.995H176.609C176.176 164.986 175.764 164.808 175.463 164.5C175.162 164.192 174.995 163.778 175 163.349V131.762C175.001 131.549 175.045 131.339 175.128 131.143C175.211 130.948 175.333 130.77 175.485 130.621C175.638 130.472 175.819 130.355 176.018 130.275C176.216 130.196 176.429 130.156 176.643 130.158H205.209C205.424 130.156 205.636 130.196 205.835 130.275C206.034 130.355 206.214 130.472 206.367 130.621C206.52 130.77 206.641 130.948 206.725 131.143C206.808 131.339 206.851 131.549 206.852 131.762V163.366ZM206.852 90.8183C206.85 91.2487 206.676 91.6608 206.368 91.9644C206.06 92.2679 205.644 92.4383 205.209 92.4383H176.609C176.175 92.4383 175.758 92.2679 175.45 91.9644C175.142 91.6608 174.968 91.2487 174.966 90.8183V59.2138C174.966 58.7819 175.139 58.3676 175.447 58.0622C175.755 57.7568 176.173 57.5852 176.609 57.5852H205.209C205.425 57.5852 205.639 57.6274 205.838 57.7092C206.038 57.791 206.219 57.911 206.371 58.0622C206.524 58.2135 206.645 58.393 206.727 58.5906C206.81 58.7882 206.852 58.9999 206.852 59.2138V90.8183ZM262.949 381.043C262.949 381.258 262.907 381.47 262.823 381.668C262.74 381.866 262.619 382.046 262.465 382.198C262.312 382.349 262.129 382.469 261.929 382.55C261.729 382.632 261.514 382.673 261.298 382.672H232.706C232.49 382.673 232.276 382.632 232.076 382.55C231.876 382.469 231.694 382.349 231.541 382.197C231.389 382.046 231.268 381.866 231.185 381.668C231.103 381.47 231.062 381.257 231.063 381.043V349.456C231.063 349.242 231.105 349.031 231.188 348.834C231.271 348.637 231.392 348.458 231.544 348.307C231.697 348.157 231.878 348.037 232.078 347.956C232.277 347.876 232.49 347.834 232.706 347.836H261.298C261.514 347.833 261.728 347.874 261.928 347.954C262.129 348.034 262.311 348.153 262.465 348.304C262.618 348.455 262.74 348.634 262.823 348.832C262.907 349.029 262.949 349.241 262.949 349.456V381.043ZM262.949 308.478C262.95 308.693 262.908 308.906 262.826 309.105C262.743 309.304 262.621 309.484 262.468 309.636C262.314 309.787 262.131 309.907 261.93 309.988C261.73 310.069 261.514 310.109 261.298 310.107H232.706C232.489 310.109 232.275 310.069 232.074 309.988C231.874 309.907 231.692 309.787 231.539 309.635C231.386 309.483 231.265 309.303 231.183 309.104C231.101 308.906 231.06 308.693 231.063 308.478V276.899C231.06 276.685 231.101 276.472 231.183 276.274C231.265 276.075 231.386 275.895 231.539 275.743C231.692 275.591 231.874 275.471 232.074 275.39C232.275 275.309 232.489 275.269 232.706 275.271H261.298C261.514 275.269 261.73 275.309 261.93 275.39C262.131 275.471 262.314 275.591 262.468 275.742C262.621 275.894 262.743 276.074 262.826 276.273C262.908 276.472 262.95 276.685 262.949 276.899V308.478ZM262.949 235.931C262.949 236.145 262.907 236.358 262.823 236.556C262.74 236.754 262.619 236.934 262.465 237.085C262.312 237.237 262.129 237.356 261.929 237.438C261.729 237.519 261.514 237.56 261.298 237.559H232.706C232.49 237.56 232.276 237.519 232.076 237.438C231.876 237.356 231.694 237.236 231.541 237.085C231.389 236.933 231.268 236.753 231.185 236.555C231.103 236.357 231.062 236.145 231.063 235.931V204.326C231.063 204.113 231.105 203.901 231.188 203.704C231.271 203.507 231.392 203.328 231.544 203.178C231.697 203.027 231.878 202.908 232.078 202.827C232.277 202.746 232.49 202.705 232.706 202.706H261.298C261.513 202.705 261.727 202.746 261.927 202.827C262.127 202.908 262.309 203.027 262.462 203.177C262.615 203.328 262.737 203.506 262.821 203.704C262.905 203.901 262.948 204.112 262.949 204.326V235.931ZM262.949 163.366C262.949 163.581 262.907 163.793 262.823 163.991C262.74 164.189 262.619 164.369 262.465 164.521C262.312 164.672 262.129 164.792 261.929 164.873C261.729 164.954 261.514 164.996 261.298 164.995H232.706C232.49 164.996 232.276 164.954 232.076 164.873C231.876 164.791 231.694 164.672 231.541 164.52C231.389 164.369 231.268 164.189 231.185 163.991C231.103 163.792 231.062 163.58 231.063 163.366V131.762C231.064 131.549 231.107 131.339 231.191 131.143C231.274 130.948 231.395 130.77 231.548 130.621C231.701 130.472 231.882 130.355 232.08 130.275C232.279 130.196 232.492 130.156 232.706 130.158H261.298C261.513 130.155 261.726 130.194 261.926 130.273C262.126 130.352 262.307 130.469 262.461 130.618C262.615 130.767 262.737 130.945 262.821 131.141C262.904 131.338 262.948 131.548 262.949 131.762V163.366ZM262.949 90.8183C262.948 91.0321 262.905 91.2437 262.821 91.4408C262.737 91.638 262.615 91.8169 262.462 91.9674C262.309 92.1178 262.127 92.2368 261.927 92.3176C261.727 92.3985 261.513 92.4395 261.298 92.4383H232.706C232.49 92.4395 232.277 92.3984 232.078 92.3175C231.878 92.2365 231.697 92.1174 231.544 91.9668C231.392 91.8163 231.271 91.6373 231.188 91.4402C231.105 91.2431 231.063 91.0317 231.063 90.8183V59.2138C231.062 58.9996 231.103 58.7873 231.185 58.5893C231.268 58.3912 231.389 58.2112 231.541 58.0597C231.694 57.9083 231.876 57.7884 232.076 57.7069C232.276 57.6255 232.49 57.5841 232.706 57.5852H261.298C261.514 57.5841 261.729 57.6254 261.929 57.7068C262.129 57.7881 262.312 57.9079 262.465 58.0592C262.619 58.2106 262.74 58.3905 262.823 58.5886C262.907 58.7867 262.949 58.9992 262.949 59.2138V90.8183Z" fill="#FFCCB4" fill-opacity="0.3"/>
<path d="M580.917 283.728C580.917 284.403 580.646 285.05 580.165 285.527C579.683 286.004 579.03 286.273 578.35 286.273H449.853C449.172 286.273 448.519 286.004 448.038 285.527C447.556 285.05 447.286 284.403 447.286 283.728V258.281C447.286 257.607 447.556 256.959 448.038 256.482C448.519 256.005 449.172 255.737 449.853 255.737H578.35C579.03 255.737 579.683 256.005 580.165 256.482C580.646 256.959 580.917 257.607 580.917 258.281V283.728Z" fill="#FFCCB4" fill-opacity="0.3"/>
<path d="M432.079 79.93C431.883 79.2524 431.471 78.6558 430.905 78.2293C430.339 77.8028 429.649 77.5692 428.938 77.5635C428.297 77.5799 427.675 77.7835 427.149 78.1487L426.918 78.3014L425.866 79.6247L303.077 234L302.513 234.754C301.854 235.389 301.47 236.253 301.443 237.163V426.866C301.444 427.264 301.524 427.658 301.679 428.025C301.833 428.392 302.059 428.725 302.344 429.005C302.628 429.286 302.966 429.508 303.337 429.659C303.708 429.81 304.105 429.887 304.507 429.886H429.315C429.715 429.887 430.112 429.81 430.483 429.659C430.854 429.507 431.191 429.285 431.474 429.005C431.758 428.724 431.983 428.391 432.137 428.024C432.291 427.657 432.37 427.264 432.37 426.866V81.2023C432.363 80.7627 432.264 80.3293 432.079 79.93ZM380.389 163.767L381.245 162.682C389.64 151.994 403.804 134.691 410.701 126.327L411.608 125.259C411.942 124.856 412.362 124.532 412.837 124.31C413.311 124.087 413.83 123.97 414.355 123.969C415.169 123.973 415.956 124.258 416.581 124.776C417.206 125.293 417.629 126.009 417.779 126.802V165.896C417.775 166.803 417.415 167.673 416.776 168.321C416.138 168.97 415.27 169.348 414.355 169.374C414.296 169.374 414.253 169.374 414.201 169.374C414.15 169.374 414.099 169.374 414.039 169.374H383.393C383.333 169.374 383.29 169.374 383.239 169.374C383.188 169.374 383.136 169.374 383.085 169.374C382.171 169.346 381.305 168.968 380.666 168.319C380.028 167.671 379.668 166.802 379.662 165.896C379.664 165.127 379.92 164.38 380.389 163.767ZM360.963 379.977C360.964 380.375 360.886 380.769 360.733 381.137C360.579 381.505 360.354 381.839 360.071 382.121C359.787 382.402 359.449 382.625 359.078 382.777C358.707 382.929 358.309 383.006 357.908 383.005H320.664C320.262 383.006 319.865 382.929 319.493 382.777C319.122 382.625 318.785 382.402 318.501 382.121C318.217 381.839 317.992 381.505 317.839 381.137C317.686 380.769 317.608 380.375 317.609 379.977V356.88C317.609 356.483 317.688 356.09 317.841 355.723C317.995 355.356 318.22 355.023 318.504 354.742C318.788 354.462 319.125 354.239 319.495 354.088C319.866 353.937 320.263 353.86 320.664 353.861H357.899C358.3 353.86 358.697 353.937 359.068 354.088C359.438 354.239 359.775 354.462 360.059 354.742C360.343 355.023 360.568 355.356 360.722 355.723C360.875 356.09 360.954 356.483 360.954 356.88L360.963 379.977ZM360.963 337.295C360.964 337.693 360.886 338.087 360.733 338.455C360.579 338.823 360.354 339.157 360.071 339.439C359.787 339.72 359.449 339.943 359.078 340.095C358.707 340.247 358.309 340.324 357.908 340.323H320.664C320.262 340.324 319.865 340.247 319.493 340.095C319.122 339.943 318.785 339.72 318.501 339.439C318.217 339.157 317.992 338.823 317.839 338.455C317.686 338.087 317.608 337.693 317.609 337.295V314.198C317.606 313.8 317.684 313.405 317.837 313.037C317.989 312.668 318.214 312.334 318.498 312.052C318.783 311.77 319.12 311.547 319.492 311.396C319.864 311.245 320.262 311.168 320.664 311.17H357.899C358.301 311.168 358.699 311.245 359.071 311.396C359.443 311.547 359.78 311.77 360.065 312.052C360.349 312.334 360.574 312.668 360.726 313.037C360.879 313.405 360.957 313.8 360.954 314.198L360.963 337.295ZM360.963 294.613C360.963 295.01 360.884 295.404 360.73 295.77C360.577 296.137 360.351 296.471 360.068 296.751C359.784 297.032 359.447 297.254 359.076 297.405C358.706 297.556 358.308 297.634 357.908 297.633H320.664C320.263 297.634 319.866 297.556 319.495 297.405C319.125 297.254 318.788 297.032 318.504 296.751C318.22 296.471 317.995 296.137 317.841 295.77C317.688 295.404 317.609 295.01 317.609 294.613V271.508C317.608 271.11 317.686 270.715 317.839 270.347C317.992 269.98 318.217 269.645 318.501 269.364C318.785 269.082 319.122 268.859 319.493 268.708C319.865 268.556 320.262 268.478 320.664 268.479H357.899C358.301 268.478 358.698 268.556 359.07 268.708C359.441 268.859 359.778 269.082 360.062 269.364C360.346 269.645 360.571 269.98 360.724 270.347C360.877 270.715 360.955 271.11 360.954 271.508L360.963 294.613ZM361.066 201.08V251.973C361.063 252.776 360.741 253.545 360.168 254.112C359.596 254.679 358.82 254.999 358.01 255.001H320.784C320.381 255.004 319.982 254.927 319.609 254.776C319.237 254.625 318.898 254.402 318.612 254.12C318.327 253.839 318.1 253.504 317.946 253.136C317.791 252.767 317.711 252.372 317.711 251.973V245.569C317.725 245.183 317.803 244.802 317.942 244.441C317.995 244.317 318.058 244.198 318.131 244.085C318.209 243.944 318.301 243.81 318.405 243.686C318.49 243.542 318.636 243.355 318.747 243.194C323.505 236.409 344.985 210.216 354.005 199.257L354.912 198.171C355.246 197.77 355.666 197.447 356.141 197.225C356.616 197.004 357.135 196.889 357.66 196.89C358.472 196.896 359.257 197.18 359.881 197.695C360.506 198.21 360.93 198.924 361.083 199.715L361.066 201.08ZM417.873 379.977C417.873 380.375 417.794 380.769 417.64 381.136C417.487 381.503 417.262 381.837 416.978 382.118C416.694 382.4 416.357 382.623 415.987 382.775C415.616 382.927 415.219 383.005 414.818 383.005H377.591C377.188 383.008 376.789 382.931 376.416 382.78C376.044 382.629 375.705 382.406 375.419 382.124C375.134 381.843 374.907 381.508 374.753 381.14C374.598 380.771 374.519 380.376 374.519 379.977V356.88C374.52 356.482 374.6 356.088 374.755 355.72C374.91 355.353 375.137 355.019 375.422 354.739C375.708 354.458 376.046 354.236 376.418 354.086C376.79 353.935 377.189 353.858 377.591 353.861H414.818C415.626 353.861 416.402 354.179 416.975 354.745C417.548 355.311 417.87 356.079 417.873 356.88V379.977ZM417.873 337.295C417.873 338.098 417.551 338.868 416.978 339.436C416.405 340.004 415.628 340.323 414.818 340.323H377.591C377.188 340.325 376.789 340.249 376.416 340.098C376.044 339.946 375.705 339.724 375.419 339.442C375.134 339.161 374.907 338.826 374.753 338.458C374.598 338.089 374.519 337.694 374.519 337.295V314.198C374.517 313.799 374.596 313.403 374.75 313.034C374.905 312.665 375.131 312.33 375.417 312.048C375.703 311.767 376.042 311.544 376.415 311.393C376.788 311.243 377.188 311.167 377.591 311.17H414.818C415.219 311.17 415.616 311.248 415.987 311.401C416.357 311.553 416.694 311.776 416.978 312.057C417.262 312.338 417.487 312.672 417.64 313.039C417.794 313.407 417.873 313.801 417.873 314.198V337.295ZM417.873 294.613C417.868 295.414 417.545 296.181 416.972 296.746C416.4 297.312 415.626 297.63 414.818 297.633H377.591C377.189 297.635 376.79 297.558 376.418 297.408C376.046 297.257 375.708 297.035 375.422 296.755C375.137 296.474 374.91 296.141 374.755 295.773C374.6 295.406 374.52 295.011 374.519 294.613V271.508C374.519 271.109 374.598 270.713 374.753 270.345C374.907 269.976 375.134 269.642 375.419 269.36C375.705 269.079 376.044 268.856 376.416 268.705C376.789 268.554 377.188 268.477 377.591 268.479H414.818C415.628 268.479 416.405 268.799 416.978 269.366C417.551 269.934 417.873 270.704 417.873 271.508V294.613ZM417.873 251.922C417.87 252.724 417.548 253.492 416.975 254.058C416.402 254.624 415.626 254.942 414.818 254.942H377.591C377.189 254.944 376.79 254.868 376.418 254.717C376.046 254.567 375.708 254.345 375.422 254.064C375.137 253.784 374.91 253.45 374.755 253.082C374.6 252.715 374.52 252.321 374.519 251.922V228.825C374.519 228.426 374.598 228.031 374.753 227.663C374.907 227.294 375.134 226.96 375.419 226.678C375.705 226.397 376.044 226.174 376.416 226.023C376.789 225.872 377.188 225.795 377.591 225.797H414.818C415.628 225.797 416.405 226.116 416.978 226.684C417.551 227.252 417.873 228.022 417.873 228.825V251.922ZM417.873 209.232C417.873 209.629 417.794 210.023 417.64 210.391C417.487 210.758 417.262 211.092 416.978 211.373C416.694 211.654 416.357 211.877 415.987 212.029C415.616 212.182 415.219 212.26 414.818 212.26H377.591C377.188 212.262 376.789 212.185 376.416 212.034C376.044 211.883 375.705 211.66 375.419 211.379C375.134 211.098 374.907 210.763 374.753 210.394C374.598 210.026 374.519 209.631 374.519 209.232V186.135C374.517 185.735 374.596 185.339 374.75 184.969C374.904 184.6 375.131 184.264 375.416 183.982C375.702 183.7 376.041 183.476 376.414 183.325C376.788 183.173 377.187 183.096 377.591 183.098H414.818C415.219 183.098 415.617 183.177 415.989 183.33C416.36 183.482 416.697 183.706 416.981 183.988C417.265 184.27 417.49 184.605 417.643 184.973C417.796 185.342 417.874 185.736 417.873 186.135V209.232Z" fill="#FFCCB4" fill-opacity="0.3"/>
</svg>
