<svg width="23" height="23" viewBox="0 0 23 23" fill="none" xmlns="http://www.w3.org/2000/svg">
<g clip-path="url(#clip0_173_461)">
<path d="M8.30529 3.19475C8.98972 3.19475 9.65877 3.3977 10.2278 3.77795C10.7969 4.1582 11.2405 4.69865 11.5024 5.33098C11.7643 5.9633 11.8328 6.6591 11.6993 7.33037C11.5658 8.00164 11.2362 8.61824 10.7522 9.10221C10.2683 9.58617 9.65168 9.91575 8.9804 10.0493C8.30913 10.1828 7.61334 10.1143 6.98101 9.85235C6.34869 9.59043 5.80823 9.14689 5.42799 8.57781C5.04774 8.00873 4.84478 7.33968 4.84478 6.65526C4.84478 5.73747 5.20937 4.85728 5.85834 4.20831C6.50732 3.55934 7.38751 3.19475 8.30529 3.19475ZM8.30529 1.81055C7.3471 1.81055 6.41042 2.09468 5.61372 2.62703C4.81701 3.15937 4.19605 3.91601 3.82936 4.80127C3.46268 5.68652 3.36674 6.66063 3.55367 7.60041C3.74061 8.54019 4.20202 9.40344 4.87956 10.081C5.55711 10.7585 6.42035 11.2199 7.36014 11.4069C8.29992 11.5938 9.27403 11.4979 10.1593 11.1312C11.0445 10.7645 11.8012 10.1435 12.3335 9.34683C12.8659 8.55013 13.15 7.61345 13.15 6.65526C13.15 5.37036 12.6396 4.13809 11.731 3.22953C10.8225 2.32097 9.59019 1.81055 8.30529 1.81055ZM15.2263 21.1894H13.8421V17.7289C13.8421 16.8111 13.4775 15.9309 12.8285 15.2819C12.1796 14.633 11.2994 14.2684 10.3816 14.2684H6.22899C5.3112 14.2684 4.43101 14.633 3.78204 15.2819C3.13307 15.9309 2.76848 16.8111 2.76848 17.7289V21.1894H1.38428V17.7289C1.38428 16.444 1.8947 15.2117 2.80326 14.3032C3.71182 13.3946 4.94409 12.8842 6.22899 12.8842H10.3816C11.6665 12.8842 12.8988 13.3946 13.8073 14.3032C14.7159 15.2117 15.2263 16.444 15.2263 17.7289V21.1894ZM15.2263 3.19475H22.1473V4.57895H15.2263V3.19475ZM15.2263 6.65526H22.1473V8.03946H15.2263V6.65526ZM15.2263 10.1158H20.071V11.5H15.2263V10.1158Z" fill="#FD6925"/>
</g>
<defs>
<clipPath id="clip0_173_461">
<rect width="22.1472" height="22.1472" fill="white" transform="translate(0 0.42627)"/>
</clipPath>
</defs>
</svg>
