<svg width="178" height="58" viewBox="0 0 178 58" fill="none" xmlns="http://www.w3.org/2000/svg">
<rect width="10.4367" height="56.358" rx="5.21834" transform="matrix(-1 0 0 1 42.4756 0.631836)" fill="#FD8249" fill-opacity="0.75"/>
<path d="M23.6904 11.0686L23.6904 21.5053L49.7821 21.5053C52.6641 21.5053 55.0004 19.1689 55.0004 16.2869C55.0004 13.4049 52.6641 11.0686 49.7821 11.0686L23.6904 11.0686Z" fill="#FD8249" fill-opacity="0.75"/>
<path d="M21.6025 23.5928H11.1659V51.7718C11.1659 54.6538 13.5022 56.9901 16.3842 56.9901C19.2662 56.9901 21.6025 54.6538 21.6025 51.7718V23.5928Z" fill="#FD8249" fill-opacity="0.75"/>
<rect width="10.4367" height="54.2707" rx="5.21834" transform="matrix(4.37114e-08 1 1 -4.37114e-08 0.729492 34.0293)" fill="#FD8249" fill-opacity="0.75"/>
<path fill-rule="evenodd" clip-rule="evenodd" d="M15.5 1C18.5376 1 21 3.46243 21 6.5V21H19H10H5C2.23858 21 0 18.7614 0 16C0 13.2386 2.23858 11 5 11H10V6.5C10 3.46243 12.4624 1 15.5 1Z" fill="#4C9F38"/>
<path d="M41.1178 35.6637V36.9003H39.4389V42H37.8955V36.9003H36.2166V35.6637H41.1178Z" fill="white" fill-opacity="0.45"/>
<path d="M44.5782 40.8808H42.2134L41.8343 42H40.2186L42.5112 35.6637H44.2984L46.591 42H44.9573L44.5782 40.8808ZM44.1811 39.6893L43.3958 37.3696L42.6196 39.6893H44.1811Z" fill="white" fill-opacity="0.45"/>
<path d="M50.9513 37.6675C50.837 37.4569 50.6715 37.2974 50.4549 37.1891C50.2443 37.0748 49.9945 37.0176 49.7057 37.0176C49.2063 37.0176 48.8061 37.1831 48.5052 37.5141C48.2044 37.839 48.0539 38.2753 48.0539 38.8228C48.0539 39.4065 48.2104 39.8638 48.5233 40.1948C48.8422 40.5197 49.2785 40.6822 49.8321 40.6822C50.2112 40.6822 50.5301 40.5859 50.7888 40.3934C51.0536 40.2008 51.2461 39.924 51.3665 39.563H49.4078V38.4257H52.7655V39.8608C52.6512 40.2459 52.4556 40.604 52.1788 40.9349C51.9081 41.2659 51.5621 41.5337 51.1408 41.7382C50.7196 41.9428 50.2443 42.0451 49.7147 42.0451C49.0889 42.0451 48.5293 41.9097 48.0359 41.639C47.5485 41.3622 47.1664 40.9801 46.8896 40.4927C46.6188 40.0052 46.4834 39.4486 46.4834 38.8228C46.4834 38.197 46.6188 37.6404 46.8896 37.153C47.1664 36.6596 47.5485 36.2775 48.0359 36.0067C48.5233 35.7299 49.0799 35.5915 49.7057 35.5915C50.4639 35.5915 51.1017 35.775 51.6192 36.1421C52.1427 36.5092 52.4887 37.0176 52.6572 37.6675H50.9513Z" fill="white" fill-opacity="0.45"/>
<path d="M4.92973 19.0649C4.4538 19.0649 4.02733 18.9876 3.65029 18.8331C3.27326 18.6786 2.9704 18.4499 2.7417 18.147C2.51919 17.8442 2.40176 17.4795 2.38939 17.053H4.07677C4.1015 17.2941 4.18494 17.4795 4.3271 17.6093C4.46926 17.7329 4.65468 17.7947 4.88338 17.7947C5.11825 17.7947 5.30367 17.7422 5.43965 17.6371C5.57563 17.5259 5.64362 17.3744 5.64362 17.1828C5.64362 17.0221 5.58799 16.8892 5.47674 16.7842C5.37166 16.6791 5.23878 16.5926 5.07807 16.5246C4.92355 16.4566 4.70104 16.3793 4.41054 16.2928C3.99024 16.163 3.6472 16.0332 3.38142 15.9034C3.11565 15.7736 2.88695 15.582 2.69535 15.3286C2.50374 15.0751 2.40794 14.7445 2.40794 14.3365C2.40794 13.7308 2.62736 13.258 3.0662 12.918C3.50504 12.5719 4.07677 12.3988 4.78139 12.3988C5.49837 12.3988 6.07628 12.5719 6.51512 12.918C6.95397 13.258 7.18884 13.7339 7.21974 14.3458H5.50455C5.49219 14.1357 5.41493 13.9719 5.27277 13.8544C5.13061 13.7308 4.94827 13.669 4.72576 13.669C4.53416 13.669 4.37963 13.7215 4.2622 13.8266C4.14476 13.9255 4.08604 14.0708 4.08604 14.2624C4.08604 14.4725 4.18494 14.6363 4.38272 14.7537C4.58051 14.8712 4.88956 14.9979 5.30986 15.1339C5.73015 15.276 6.0701 15.412 6.3297 15.5418C6.59548 15.6716 6.82417 15.8601 7.01578 16.1074C7.20738 16.3546 7.30319 16.6729 7.30319 17.0623C7.30319 17.4331 7.20738 17.77 7.01578 18.0729C6.83035 18.3757 6.55839 18.6168 6.1999 18.796C5.84141 18.9753 5.41802 19.0649 4.92973 19.0649Z" fill="white" fill-opacity="0.45"/>
<path d="M10.0132 12.4915C10.6993 12.4915 11.2988 12.6275 11.8118 12.8995C12.3248 13.1714 12.7204 13.5547 12.9985 14.0491C13.2829 14.5374 13.425 15.103 13.425 15.7458C13.425 16.3824 13.2829 16.948 12.9985 17.4424C12.7204 17.9369 12.3217 18.3201 11.8025 18.5921C11.2895 18.864 10.6931 19 10.0132 19H7.57482V12.4915H10.0132ZM9.91119 17.6278C10.5107 17.6278 10.9774 17.4641 11.3112 17.1365C11.6449 16.8089 11.8118 16.3453 11.8118 15.7458C11.8118 15.1462 11.6449 14.6796 11.3112 14.3458C10.9774 14.012 10.5107 13.8452 9.91119 13.8452H9.16021V17.6278H9.91119Z" fill="white" fill-opacity="0.45"/>
<path d="M17.8952 14.5498C17.7778 14.3334 17.6078 14.1697 17.3853 14.0584C17.169 13.941 16.9125 13.8822 16.6158 13.8822C16.1028 13.8822 15.6918 14.0522 15.3827 14.3922C15.0737 14.7259 14.9192 15.174 14.9192 15.7365C14.9192 16.336 15.0799 16.8058 15.4013 17.1457C15.7289 17.4795 16.177 17.6464 16.7456 17.6464C17.135 17.6464 17.4626 17.5475 17.7284 17.3497C18.0003 17.1519 18.1981 16.8676 18.3217 16.4967H16.3099V15.3286H19.7588V16.8027C19.6413 17.1983 19.4405 17.566 19.1561 17.906C18.878 18.2459 18.5226 18.521 18.0899 18.7311C17.6573 18.9413 17.169 19.0464 16.6251 19.0464C15.9823 19.0464 15.4074 18.9073 14.9006 18.6291C14.4 18.3448 14.0075 17.9523 13.7232 17.4517C13.445 16.951 13.306 16.3793 13.306 15.7365C13.306 15.0937 13.445 14.522 13.7232 14.0213C14.0075 13.5145 14.4 13.122 14.9006 12.8439C15.4013 12.5595 15.973 12.4174 16.6158 12.4174C17.3946 12.4174 18.0498 12.6059 18.5813 12.9829C19.1191 13.36 19.4745 13.8822 19.6475 14.5498H17.8952Z" fill="white" fill-opacity="0.45"/>
<path d="M70.3686 25.1438C69.3688 25.1438 68.4649 24.9726 67.6568 24.6302C66.8625 24.2878 66.2324 23.7948 65.7668 23.151C65.3011 22.5073 65.0614 21.7472 65.0477 20.8707H68.1293C68.1704 21.4596 68.3759 21.9253 68.7456 22.2677C69.1291 22.6101 69.6496 22.7813 70.307 22.7813C70.9781 22.7813 71.5054 22.6238 71.8889 22.3087C72.2724 21.98 72.4641 21.5555 72.4641 21.035C72.4641 20.6104 72.334 20.2612 72.0738 19.9873C71.8135 19.7134 71.4848 19.5011 71.0877 19.3504C70.7042 19.1861 70.17 19.008 69.4852 18.8163C68.5539 18.5424 67.7938 18.2753 67.2049 18.0151C66.6296 17.7411 66.1297 17.3371 65.7051 16.803C65.2943 16.2551 65.0888 15.5292 65.0888 14.6253C65.0888 13.7762 65.3011 13.0366 65.7257 12.4066C66.1503 11.7766 66.746 11.2972 67.513 10.9685C68.28 10.6261 69.1565 10.4549 70.1426 10.4549C71.6218 10.4549 72.8202 10.8178 73.7378 11.5437C74.6691 12.2559 75.1827 13.2557 75.2786 14.5431H72.1149C72.0875 14.0501 71.8752 13.6461 71.478 13.331C71.0945 13.0023 70.5809 12.838 69.9372 12.838C69.3757 12.838 68.9237 12.9818 68.5813 13.2694C68.2526 13.557 68.0882 13.9748 68.0882 14.5226C68.0882 14.9061 68.2115 15.2279 68.458 15.4882C68.7183 15.7347 69.0333 15.9401 69.4031 16.1045C69.7865 16.2551 70.3207 16.4332 71.0055 16.6386C71.9368 16.9125 72.6969 17.1865 73.2859 17.4604C73.8748 17.7343 74.3815 18.1452 74.8061 18.693C75.2307 19.2409 75.443 19.9599 75.443 20.8501C75.443 21.6171 75.2444 22.3293 74.8472 22.9867C74.45 23.6441 73.8679 24.1714 73.101 24.5686C72.334 24.9521 71.4232 25.1438 70.3686 25.1438ZM82.9492 10.6603C84.4558 10.6603 85.7774 10.9548 86.9142 11.5437C88.0646 12.1327 88.948 12.975 89.5644 14.0706C90.1944 15.1526 90.5094 16.4126 90.5094 17.8507C90.5094 19.2888 90.1944 20.5488 89.5644 21.6308C88.948 22.6991 88.0646 23.5277 86.9142 24.1166C85.7774 24.7055 84.4558 25 82.9492 25H77.9365V10.6603H82.9492ZM82.8465 22.5553C84.353 22.5553 85.5172 22.1444 86.339 21.3226C87.1607 20.5009 87.5716 19.3436 87.5716 17.8507C87.5716 16.3579 87.1607 15.1937 86.339 14.3582C85.5172 13.5091 84.353 13.0845 82.8465 13.0845H80.8126V22.5553H82.8465ZM102.647 14.9746C102.318 14.3719 101.866 13.9131 101.291 13.5981C100.716 13.2831 100.044 13.1256 99.2775 13.1256C98.4283 13.1256 97.675 13.3174 97.0176 13.7008C96.3602 14.0843 95.8466 14.6322 95.4768 15.3444C95.107 16.0565 94.9221 16.8783 94.9221 17.8096C94.9221 18.7683 95.107 19.6038 95.4768 20.316C95.8603 21.0282 96.3876 21.576 97.0587 21.9595C97.7298 22.343 98.5105 22.5347 99.4007 22.5347C100.496 22.5347 101.393 22.2471 102.092 21.6719C102.79 21.083 103.249 20.268 103.468 19.2272H98.5379V17.029H106.303V19.5353C106.112 20.5351 105.701 21.4596 105.071 22.3087C104.441 23.1579 103.626 23.8427 102.626 24.3631C101.64 24.8699 100.531 25.1233 99.298 25.1233C97.9147 25.1233 96.6615 24.8151 95.5385 24.1988C94.4291 23.5688 93.5525 22.6991 92.9088 21.5897C92.2788 20.4803 91.9638 19.2203 91.9638 17.8096C91.9638 16.3989 92.2788 15.1389 92.9088 14.0295C93.5525 12.9065 94.4291 12.0368 95.5385 11.4205C96.6615 10.7904 97.9079 10.4754 99.2775 10.4754C100.894 10.4754 102.297 10.8726 103.489 11.667C104.681 12.4477 105.502 13.5502 105.954 14.9746H102.647Z" fill="#868686"/>
<path d="M74.9904 35.2961V37.579H71.2326V49.3977H68.4042V37.579H64.6465V35.2961H74.9904ZM76.3267 43.7611C76.3267 42.6297 76.549 41.6263 76.9934 40.7509C77.4514 39.8754 78.0642 39.202 78.8319 38.7306C79.6131 38.2592 80.4818 38.0235 81.4381 38.0235C82.2731 38.0235 83.0004 38.1919 83.62 38.5286C84.253 38.8653 84.7581 39.2895 85.1352 39.8013V38.2053H87.9838V49.3977H85.1352V47.7613C84.7715 48.2865 84.2665 48.7243 83.62 49.0745C82.9869 49.4112 82.2529 49.5795 81.4179 49.5795C80.4751 49.5795 79.6131 49.3371 78.8319 48.8522C78.0642 48.3674 77.4514 47.6872 76.9934 46.8117C76.549 45.9228 76.3267 44.9059 76.3267 43.7611ZM85.1352 43.8015C85.1352 43.1146 85.0005 42.5287 84.7311 42.0439C84.4618 41.5455 84.0981 41.1684 83.6402 40.9125C83.1822 40.6431 82.6906 40.5084 82.1654 40.5084C81.6401 40.5084 81.1552 40.6364 80.7108 40.8923C80.2663 41.1482 79.9026 41.5253 79.6198 42.0237C79.3504 42.5085 79.2157 43.0877 79.2157 43.7611C79.2157 44.4345 79.3504 45.0272 79.6198 45.539C79.9026 46.0373 80.2663 46.4212 80.7108 46.6905C81.1687 46.9599 81.6536 47.0946 82.1654 47.0946C82.6906 47.0946 83.1822 46.9666 83.6402 46.7107C84.0981 46.4414 84.4618 46.0642 84.7311 45.5794C85.0005 45.081 85.1352 44.4884 85.1352 43.8015ZM95.1302 38.0235C95.9653 38.0235 96.6993 38.1919 97.3323 38.5286C97.9654 38.8518 98.4637 39.2761 98.8273 39.8013V38.2053H101.676V49.4785C101.676 50.5156 101.467 51.4382 101.05 52.2463C100.632 53.0679 100.006 53.7144 99.1708 54.1858C98.3357 54.6706 97.3256 54.9131 96.1404 54.9131C94.5511 54.9131 93.2446 54.5427 92.221 53.8019C91.2109 53.0612 90.6385 52.051 90.5038 50.7715H93.312C93.4601 51.2833 93.7766 51.6874 94.2615 51.9837C94.7598 52.2934 95.3592 52.4483 96.0596 52.4483C96.8811 52.4483 97.5478 52.1992 98.0596 51.7008C98.5714 51.216 98.8273 50.4752 98.8273 49.4785V47.7411C98.4637 48.2663 97.9586 48.7041 97.3121 49.0543C96.6791 49.4044 95.9518 49.5795 95.1302 49.5795C94.1874 49.5795 93.3254 49.3371 92.5443 48.8522C91.7631 48.3674 91.1435 47.6872 90.6856 46.8117C90.2411 45.9228 90.0189 44.9059 90.0189 43.7611C90.0189 42.6297 90.2411 41.6263 90.6856 40.7509C91.1435 39.8754 91.7564 39.202 92.5241 38.7306C93.3052 38.2592 94.174 38.0235 95.1302 38.0235ZM98.8273 43.8015C98.8273 43.1146 98.6927 42.5287 98.4233 42.0439C98.1539 41.5455 97.7903 41.1684 97.3323 40.9125C96.8744 40.6431 96.3828 40.5084 95.8575 40.5084C95.3323 40.5084 94.8474 40.6364 94.4029 40.8923C93.9585 41.1482 93.5948 41.5253 93.312 42.0237C93.0426 42.5085 92.9079 43.0877 92.9079 43.7611C92.9079 44.4345 93.0426 45.0272 93.312 45.539C93.5948 46.0373 93.9585 46.4212 94.4029 46.6905C94.8609 46.9599 95.3457 47.0946 95.8575 47.0946C96.3828 47.0946 96.8744 46.9666 97.3323 46.7107C97.7903 46.4414 98.1539 46.0642 98.4233 45.5794C98.6927 45.081 98.8273 44.4884 98.8273 43.8015ZM117.96 35.2961V37.579H112.081V41.1953H116.586V43.4379H112.081V49.3977H109.252V35.2961H117.96ZM121.4 36.8719C120.901 36.8719 120.484 36.717 120.147 36.4073C119.824 36.084 119.662 35.6867 119.662 35.2153C119.662 34.7439 119.824 34.3533 120.147 34.0435C120.484 33.7203 120.901 33.5587 121.4 33.5587C121.898 33.5587 122.309 33.7203 122.632 34.0435C122.969 34.3533 123.137 34.7439 123.137 35.2153C123.137 35.6867 122.969 36.084 122.632 36.4073C122.309 36.717 121.898 36.8719 121.4 36.8719ZM122.794 38.2053V49.3977H119.965V38.2053H122.794ZM131.791 38.0437C133.124 38.0437 134.201 38.468 135.023 39.3165C135.845 40.1515 136.255 41.3233 136.255 42.8318V49.3977H133.427V43.2156C133.427 42.3267 133.205 41.6465 132.76 41.1751C132.316 40.6903 131.71 40.4478 130.942 40.4478C130.161 40.4478 129.541 40.6903 129.083 41.1751C128.639 41.6465 128.417 42.3267 128.417 43.2156V49.3977H125.588V38.2053H128.417V39.5993C128.794 39.1145 129.272 38.7373 129.851 38.468C130.444 38.1851 131.09 38.0437 131.791 38.0437ZM138.218 43.7611C138.218 42.6297 138.44 41.6263 138.884 40.7509C139.342 39.8754 139.962 39.202 140.743 38.7306C141.524 38.2592 142.393 38.0235 143.349 38.0235C144.077 38.0235 144.77 38.1851 145.43 38.5084C146.09 38.8181 146.615 39.2357 147.006 39.7609V34.4476H149.875V49.3977H147.006V47.7411C146.656 48.2933 146.164 48.7377 145.531 49.0745C144.898 49.4112 144.164 49.5795 143.329 49.5795C142.386 49.5795 141.524 49.3371 140.743 48.8522C139.962 48.3674 139.342 47.6872 138.884 46.8117C138.44 45.9228 138.218 44.9059 138.218 43.7611ZM147.026 43.8015C147.026 43.1146 146.891 42.5287 146.622 42.0439C146.353 41.5455 145.989 41.1684 145.531 40.9125C145.073 40.6431 144.582 40.5084 144.056 40.5084C143.531 40.5084 143.046 40.6364 142.602 40.8923C142.157 41.1482 141.794 41.5253 141.511 42.0237C141.241 42.5085 141.107 43.0877 141.107 43.7611C141.107 44.4345 141.241 45.0272 141.511 45.539C141.794 46.0373 142.157 46.4212 142.602 46.6905C143.06 46.9599 143.545 47.0946 144.056 47.0946C144.582 47.0946 145.073 46.9666 145.531 46.7107C145.989 46.4414 146.353 46.0642 146.622 45.5794C146.891 45.081 147.026 44.4884 147.026 43.8015ZM163.042 43.5591C163.042 43.9631 163.015 44.3268 162.961 44.65H154.779C154.846 45.4581 155.129 46.0912 155.627 46.5491C156.126 47.007 156.738 47.236 157.466 47.236C158.516 47.236 159.264 46.7848 159.708 45.8824H162.759C162.436 46.9599 161.816 47.8488 160.9 48.5492C159.984 49.2361 158.86 49.5795 157.526 49.5795C156.449 49.5795 155.479 49.3438 154.617 48.8724C153.769 48.3876 153.102 47.7074 152.617 46.8319C152.146 45.9565 151.91 44.9463 151.91 43.8015C151.91 42.6432 152.146 41.6263 152.617 40.7509C153.088 39.8754 153.748 39.202 154.597 38.7306C155.445 38.2592 156.422 38.0235 157.526 38.0235C158.59 38.0235 159.54 38.2525 160.375 38.7104C161.223 39.1683 161.877 39.8216 162.335 40.6701C162.806 41.5051 163.042 42.4681 163.042 43.5591ZM160.112 42.751C160.099 42.0237 159.836 41.4445 159.324 41.0135C158.813 40.5691 158.186 40.3468 157.445 40.3468C156.745 40.3468 156.152 40.5623 155.668 40.9933C155.196 41.4108 154.907 41.9967 154.799 42.751H160.112ZM167.935 39.9428C168.298 39.3502 168.77 38.8855 169.349 38.5488C169.941 38.2121 170.615 38.0437 171.369 38.0437V41.0135H170.621C169.733 41.0135 169.059 41.2223 168.601 41.6398C168.157 42.0573 167.935 42.7846 167.935 43.8217V49.3977H165.106V38.2053H167.935V39.9428Z" fill="#323232"/>
<path d="M8.39896 9.53689L1.928 8.82866L4.48797 4.33314L8.39896 9.53689Z" fill="#4C9F38"/>
</svg>
